<svg width="15" height="14" viewBox="0 0 15 14" fill="none" xmlns="http://www.w3.org/2000/svg">
<path d="M13.8462 14C13.5192 14 13.2454 13.888 13.0246 13.664C12.8031 13.4408 12.6923 13.1639 12.6923 12.8333V1.16667C12.6923 0.836111 12.8031 0.558834 13.0246 0.334834C13.2454 0.111611 13.5192 0 13.8462 0C14.1731 0 14.4469 0.111611 14.6677 0.334834C14.8892 0.558834 15 0.836111 15 1.16667V12.8333C15 13.1639 14.8892 13.4408 14.6677 13.664C14.4469 13.888 14.1731 14 13.8462 14ZM1.78846 12.8042C1.40385 13.0764 1.00962 13.0958 0.605769 12.8625C0.201923 12.6292 0 12.2792 0 11.8125V2.1875C0 1.72083 0.201923 1.3755 0.605769 1.1515C1.00962 0.928278 1.40385 0.943056 1.78846 1.19583L8.94231 6.0375C9.28846 6.27083 9.46154 6.59167 9.46154 7C9.46154 7.40833 9.28846 7.72917 8.94231 7.9625L1.78846 12.8042Z" fill="#A49EED"/>
</svg>
