<svg width="62" height="62" viewBox="0 0 62 62" fill="none" xmlns="http://www.w3.org/2000/svg">
<path d="M21.7 43.4H27.9V18.6H21.7V43.4ZM34.1 43.4H40.3V18.6H34.1V43.4ZM31 62C26.7117 62 22.6817 61.1857 18.91 59.5572C15.1383 57.9307 11.8575 55.7225 9.0675 52.9325C6.2775 50.1425 4.06927 46.8617 2.4428 43.09C0.814267 39.3183 0 35.2883 0 31C0 26.7117 0.814267 22.6817 2.4428 18.91C4.06927 15.1383 6.2775 11.8575 9.0675 9.0675C11.8575 6.2775 15.1383 4.06823 18.91 2.4397C22.6817 0.813233 26.7117 0 31 0C35.2883 0 39.3183 0.813233 43.09 2.4397C46.8617 4.06823 50.1425 6.2775 52.9325 9.0675C55.7225 11.8575 57.9307 15.1383 59.5572 18.91C61.1857 22.6817 62 26.7117 62 31C62 35.2883 61.1857 39.3183 59.5572 43.09C57.9307 46.8617 55.7225 50.1425 52.9325 52.9325C50.1425 55.7225 46.8617 57.9307 43.09 59.5572C39.3183 61.1857 35.2883 62 31 62ZM31 55.8C37.9233 55.8 43.7875 53.3975 48.5925 48.5925C53.3975 43.7875 55.8 37.9233 55.8 31C55.8 24.0767 53.3975 18.2125 48.5925 13.4075C43.7875 8.6025 37.9233 6.2 31 6.2C24.0767 6.2 18.2125 8.6025 13.4075 13.4075C8.6025 18.2125 6.2 24.0767 6.2 31C6.2 37.9233 8.6025 43.7875 13.4075 48.5925C18.2125 53.3975 24.0767 55.8 31 55.8Z" fill="#A49EED"/>
</svg>
