<svg width="15" height="14" viewBox="0 0 15 14" fill="none" xmlns="http://www.w3.org/2000/svg">
<path d="M1.15385 -7.33632e-07C1.48077 -7.05052e-07 1.75462 0.111999 1.97539 0.335999C2.19692 0.559222 2.30769 0.83611 2.30769 1.16667L2.30769 12.8333C2.30769 13.1639 2.19692 13.4412 1.97538 13.6652C1.75462 13.8884 1.48077 14 1.15385 14C0.826923 14 0.553077 13.8884 0.332308 13.6652C0.11077 13.4412 1.92304e-07 13.1639 2.21203e-07 12.8333L1.24113e-06 1.16667C1.27003e-06 0.83611 0.110771 0.559222 0.332309 0.335999C0.553078 0.111999 0.826924 -7.62213e-07 1.15385 -7.33632e-07ZM13.2115 1.19583C13.5962 0.923611 13.9904 0.904167 14.3942 1.1375C14.7981 1.37083 15 1.72083 15 2.1875L15 11.8125C15 12.2792 14.7981 12.6245 14.3942 12.8485C13.9904 13.0717 13.5962 13.0569 13.2115 12.8042L6.05769 7.9625C5.71154 7.72917 5.53846 7.40833 5.53846 7C5.53846 6.59167 5.71154 6.27083 6.05769 6.0375L13.2115 1.19583Z" fill="#A49EED"/>
</svg>
