<svg width="21" height="19" viewBox="0 0 21 19" fill="none" xmlns="http://www.w3.org/2000/svg">
<path d="M0.00286366 9.50154C0.00543534 7.58754 0.784519 5.75265 2.16927 4.39924C3.55402 3.04583 5.43141 2.28439 7.38974 2.28187H17.0121L16.6719 1.94939C16.5634 1.84335 16.4774 1.71747 16.4187 1.57892C16.3599 1.44038 16.3297 1.29188 16.3297 1.14193C16.3297 0.991965 16.3599 0.843474 16.4187 0.704929C16.4774 0.566385 16.5634 0.4405 16.6719 0.334462C16.7804 0.228425 16.9092 0.144311 17.051 0.0869238C17.1927 0.0295367 17.3447 0 17.4981 0C17.6515 0 17.8035 0.0295367 17.9452 0.0869238C18.087 0.144311 18.2158 0.228425 18.3243 0.334462L20.657 2.61436C20.7657 2.72026 20.852 2.8461 20.9108 2.98467C20.9697 3.12323 21 3.27179 21 3.42182C21 3.57185 20.9697 3.72041 20.9108 3.85897C20.852 3.99754 20.7657 4.12338 20.657 4.22928L18.3243 6.50918C18.1042 6.72151 17.8073 6.84056 17.4981 6.84056C17.1888 6.84056 16.892 6.72151 16.6719 6.50918C16.5632 6.40327 16.4769 6.27743 16.418 6.13887C16.3592 6.00031 16.3289 5.85175 16.3289 5.70172C16.3289 5.55168 16.3592 5.40313 16.418 5.26456C16.4769 5.126 16.5632 5.00016 16.6719 4.89425L17.0121 4.56177H7.38974C6.04929 4.56177 4.76374 5.08221 3.81589 6.00859C2.86805 6.93498 2.33556 8.19143 2.33556 9.50154C2.33556 9.80387 2.21268 10.0938 1.99395 10.3076C1.77521 10.5214 1.47855 10.6415 1.16921 10.6415C0.859877 10.6415 0.563212 10.5214 0.344479 10.3076C0.125746 10.0938 0.00286366 9.80387 0.00286366 9.50154ZM19.8308 8.36159C19.5215 8.36159 19.2248 8.48169 19.0061 8.69548C18.7873 8.90926 18.6644 9.19921 18.6644 9.50154C18.6644 10.1502 18.5337 10.7926 18.2797 11.3919C18.0257 11.9912 17.6534 12.5358 17.1841 12.9945C16.7148 13.4532 16.1576 13.817 15.5444 14.0653C14.9312 14.3135 14.274 14.4413 13.6103 14.4413H3.98789L4.32807 14.1088C4.54719 13.8947 4.67028 13.6042 4.67028 13.3014C4.67028 12.9985 4.54719 12.7081 4.32807 12.4939C4.10896 12.2798 3.81178 12.1594 3.50191 12.1594C3.19204 12.1594 2.89486 12.2798 2.67575 12.4939L0.343049 14.7738C0.234314 14.8797 0.148039 15.0055 0.0891709 15.1441C0.0303029 15.2827 0 15.4312 0 15.5813C0 15.7313 0.0303029 15.8799 0.0891709 16.0184C0.148039 16.157 0.234314 16.2828 0.343049 16.3887L2.67575 18.6686C2.89584 18.8809 3.19265 19 3.50191 19C3.81116 19 4.10797 18.8809 4.32807 18.6686C4.43681 18.5627 4.52308 18.4369 4.58195 18.2983C4.64082 18.1597 4.67112 18.0112 4.67112 17.8612C4.67112 17.7111 4.64082 17.5626 4.58195 17.424C4.52308 17.2854 4.43681 17.1596 4.32807 17.0537L3.98789 16.7212H13.6103C15.5686 16.7187 17.446 15.9572 18.8307 14.6038C20.2155 13.2504 20.9946 11.4155 20.9971 9.50154C20.9971 9.19921 20.8743 8.90926 20.6555 8.69548C20.4368 8.48169 20.1401 8.36159 19.8308 8.36159Z" fill="#A49EED"/>
</svg>
