<svg width="20" height="18" viewBox="0 0 20 18" fill="none" xmlns="http://www.w3.org/2000/svg">
<path d="M15.175 0.961743C15.232 0.242743 15.925 -0.208256 16.506 0.0967437C16.886 0.294744 17.427 0.597744 18.064 1.01174C18.733 1.44574 19.254 1.83874 19.597 2.11174C20.087 2.50074 20.067 3.30574 19.547 3.71674C19.0591 4.10135 18.5535 4.46308 18.032 4.80074C17.374 5.22874 16.822 5.53674 16.442 5.73474C15.865 6.03474 15.236 5.64974 15.181 4.97874C15.1689 4.83252 15.1582 4.68618 15.149 4.53974C14.5125 4.69392 13.9174 4.98515 13.4051 5.39311C12.8928 5.80107 12.4757 6.31593 12.183 6.90174L11.177 8.91374L12.183 10.9257C12.476 11.5122 12.8937 12.0275 13.4067 12.4357C13.9197 12.8438 14.5157 13.135 15.153 13.2887L15.175 12.9617C15.232 12.2427 15.924 11.7917 16.506 12.0967C16.886 12.2947 17.427 12.5977 18.064 13.0117C18.733 13.4457 19.254 13.8387 19.597 14.1117C20.087 14.5007 20.067 15.3057 19.547 15.7167C19.0591 16.1013 18.5535 16.4631 18.032 16.8007C17.374 17.2277 16.822 17.5357 16.442 17.7337C15.865 18.0347 15.235 17.6497 15.181 16.9787C15.166 16.7977 15.151 16.5827 15.138 16.3367C13.9396 16.164 12.8008 15.7036 11.819 14.9951C10.8372 14.2865 10.0415 13.3507 9.5 12.2677C8.87713 13.5135 7.91967 14.5613 6.73489 15.2935C5.5501 16.0258 4.18482 16.4137 2.792 16.4137H1.5C1.10218 16.4137 0.720644 16.2557 0.43934 15.9744C0.158035 15.6931 0 15.3116 0 14.9137C0 14.5159 0.158035 14.1344 0.43934 13.8531C0.720644 13.5718 1.10218 13.4137 1.5 13.4137H2.792C3.62777 13.4137 4.44701 13.1809 5.15792 12.7415C5.86883 12.3021 6.44332 11.6733 6.817 10.9257L7.823 8.91374L6.817 6.90174C6.44332 6.15417 5.86883 5.52543 5.15792 5.08599C4.44701 4.64655 3.62777 4.41377 2.792 4.41374H1.5C1.10218 4.41374 0.720644 4.25571 0.43934 3.9744C0.158035 3.6931 0 3.31157 0 2.91374C0 2.51592 0.158035 2.13439 0.43934 1.85308C0.720644 1.57178 1.10218 1.41374 1.5 1.41374H2.792C4.18482 1.41379 5.5501 1.80168 6.73489 2.53396C7.91967 3.26624 8.87713 4.31396 9.5 5.55974C10.0416 4.47634 10.8375 3.54022 11.8197 2.83144C12.8019 2.12266 13.9411 1.6623 15.14 1.48974C15.151 1.29274 15.163 1.11574 15.175 0.961743Z" fill="#A49EED"/>
</svg>
