<?xml version="1.0" encoding="utf-8"?>
<!-- Generator: Adobe Illustrator 27.0.1, SVG Export Plug-In . SVG Version: 6.00 Build 0)  -->
<svg version="1.1" id="Layer_1" xmlns="http://www.w3.org/2000/svg" xmlns:xlink="http://www.w3.org/1999/xlink" x="0px" y="0px"
	 viewBox="0 0 1270.3 399.5" style="enable-background:new 0 0 1270.3 399.5;" xml:space="preserve">
<style type="text/css">
	.st0{fill:#FFFFFF;}
	.st1{fill:#E1AAA8;}
	.st2{font-family:'Ubuntu';}
	.st3{font-size:209.234px;}
</style>
<g>
	<path class="st0" d="M315.4,80.5l-124.8,0v28.8h49v98.1c-11.5-1.5-25.6,0.1-40.1,5c-30.9,10.3-49.3,33.2-43.3,51
		c6,17.9,34,24,64.9,13.6c26.3-8.8,44.2-28,45.2-44.6h0V109.3l49,0V80.5z"/>
	<path class="st1" d="M733,80.5l-124.8,0v28.8h49v98.1c-11.5-1.5-25.6,0.1-40.1,5c-30.9,10.3-49.3,33.2-43.3,51
		c6,17.9,34,24,64.9,13.6c26.3-8.8,44.2-28,45.2-44.6h0V109.3l49,0V80.5z"/>
	<text transform="matrix(1 0 0 1 298.7428 255.564)" class="st0 st2 st3">op</text>
	<text transform="matrix(1 0 0 1 712.4733 255.564)" class="st1 st2 st3">unes</text>
</g>
</svg>
